<?xml version="1.0" standalone="no"?>
<!DOCTYPE svg PUBLIC "-//W3C//DTD SVG 1.1//EN" "http://www.w3.org/Graphics/SVG/1.1/DTD/svg11.dtd" >
<svg xmlns="http://www.w3.org/2000/svg" xmlns:xlink="http://www.w3.org/1999/xlink" version="1.1">
<metadata>
Created by FontForge 20170731 at Fri Jan 15 01:34:15 2021
 By Aleksey,,,
Rainbow Saturday (c) ( Bluestype Studio ). 2020. All Rights Reserved
</metadata>
<defs>
<font id="RainbowSaturday" horiz-adv-x="1406" >
  <font-face 
    font-family="Rainbow Saturday"
    font-weight="400"
    font-stretch="normal"
    units-per-em="2048"
    panose-1="2 0 5 0 0 0 0 0 0 0"
    ascent="1638"
    descent="-410"
    x-height="259"
    cap-height="877"
    bbox="-641 -680 2853 927"
    underline-thickness="150"
    underline-position="-367"
    unicode-range="U+001D-F002"
  />
<missing-glyph horiz-adv-x="1024" 
 />
    <glyph glyph-name="tt" unicode="tt" horiz-adv-x="975" 
d="M600 -17q-124 0 -124 123q0 10 2 38q-236 -161 -368 -161q-87 0 -116 71q-9 19 -9 50q0 29 7 61q36 135 147 273q-147 -14 -180 -27q-6 -13 -20 -13q-22 0 -22 23q0 7 5 15q24 28 254 48q61 69 115 115q66 57 102 59q33 0 33 -27q0 -20 -20 -20q-8 0 -13 4
q-39 0 -156 -126q249 16 447 16q141 153 198 153q5 0 15 -2q8 -3 14 -9q5 -7 5 -13q0 -8 -6 -16q-6 -7 -13 -7q-10 0 -15 4q-36 0 -141 -110q221 -1 288 -26q26 -9 29 -31q0 -22 -20 -33t-26 -11q-22 0 -22 20q0 15 13 19q0 1 1 1q-65 18 -301 19q-185 -217 -185 -354
q0 -1 2 -31q1 -21 27 -41q17 -13 51 -13q36 0 120 26q81 26 258 150q4 4 11 4q10 0 16 -7q5 -8 5 -15q0 -9 -8 -15q-259 -184 -400 -184zM109 24q39 0 118 25q82 26 258 151q3 3 8 3q47 131 155 260q-229 0 -450 -19q-123 -141 -164 -287q-7 -30 -7 -50l2 -30q1 -20 29 -40
q17 -13 51 -13z" />
    <glyph glyph-name="jj" unicode="jj" horiz-adv-x="929" 
d="M69 326l-6 2q-14 4 -14 21q0 7 18 48q18 39 39 39q26 0 26 -21q0 -19 -20 -21q-8 -11 -23 -52q-6 -16 -20 -16zM59 -549q-23 0 -36 5q-83 25 -98 118q-2 16 -2 24q0 156 205 278q144 71 347 112l15 5q43 101 77 195q-212 -127 -580 -214l-27 -7q-67 -159 -173 -311
q-156 -205 -292 -205q-25 0 -36 5q-93 28 -100 139q0 160 205 281q134 65 366 125q52 119 102 271q2 15 19 15q21 0 21 -20q0 -35 -91 -251q197 51 381 116q175 62 235 145l2 2l2 2q1 0 1 2q2 0 2 2l4 1h5q0 1 2 1q8 -2 12 -4l2 -1q1 0 1 -2h1l2 -4h1l2 -16
q-51 -151 -94 -254q132 31 237 73q107 43 153 114q5 10 16 10q22 0 22 -22q0 -4 -2 -10q-57 -85 -179 -133q-122 -47 -268 -81q-68 -156 -170 -301q-157 -205 -292 -205zM-510 -506q14 0 42 3q31 5 88 44q59 41 133 140q91 128 155 270q-208 -53 -324 -112
q-109 -63 -149 -135q-35 -61 -35 -107q0 -82 69 -100q7 -3 21 -3zM54 -506q14 0 42 3q32 5 88 44q60 42 132 140q88 122 153 263q-193 -42 -321 -105q-183 -107 -183 -241q0 -83 68 -101q7 -3 21 -3zM628 323l-5 2q-16 4 -16 19q0 14 19 51q20 38 41 38q23 0 23 -21
q0 -20 -18 -21q-13 -21 -23 -53q-7 -15 -21 -15z" />
    <glyph glyph-name=".notdef" horiz-adv-x="1024" 
 />
    <glyph glyph-name=".null" horiz-adv-x="0" 
 />
    <glyph glyph-name=".null" horiz-adv-x="0" 
 />
    <glyph glyph-name="nonmarkingreturn" horiz-adv-x="508" 
 />
    <glyph glyph-name="space" unicode=" " horiz-adv-x="508" 
 />
    <glyph glyph-name="space" unicode="&#xa0;" horiz-adv-x="508" 
 />
    <glyph glyph-name="exclam" unicode="!" horiz-adv-x="642" 
 />
    <glyph glyph-name="quotedbl" unicode="&#x22;" horiz-adv-x="310" 
 />
    <glyph glyph-name="numbersign" unicode="#" horiz-adv-x="739" 
 />
    <glyph glyph-name="dollar" unicode="$" horiz-adv-x="592" 
 />
    <glyph glyph-name="percent" unicode="%" horiz-adv-x="598" 
 />
    <glyph glyph-name="ampersand" unicode="&#x26;" horiz-adv-x="844" 
 />
    <glyph glyph-name="quotesingle" unicode="'" horiz-adv-x="286" 
 />
    <glyph glyph-name="parenleft" unicode="(" horiz-adv-x="641" 
 />
    <glyph glyph-name="parenright" unicode=")" horiz-adv-x="838" 
 />
    <glyph glyph-name="asterisk" unicode="*" horiz-adv-x="451" 
 />
    <glyph glyph-name="plus" unicode="+" horiz-adv-x="615" 
 />
    <glyph glyph-name="comma" unicode="," horiz-adv-x="205" 
 />
    <glyph glyph-name="hyphen" unicode="-" horiz-adv-x="564" 
 />
    <glyph glyph-name="hyphen" unicode="&#xad;" horiz-adv-x="564" 
 />
    <glyph glyph-name="period" unicode="." horiz-adv-x="195" 
 />
    <glyph glyph-name="slash" unicode="/" horiz-adv-x="919" 
 />
    <glyph glyph-name="zero" unicode="0" horiz-adv-x="442" 
d="M98 -16q-46 0 -73 39q-22 38 -22 94q0 77 44 189q57 131 142 218t157 87q46 0 73 -39q22 -38 22 -94q0 -79 -43 -187q-59 -134 -143 -220q-84 -87 -157 -87zM98 26q53 0 128 76q76 76 133 204q41 114 41 178q0 43 -15 64q-16 22 -39 22q-51 0 -128 -77t-132 -202
q-42 -114 -42 -180q0 -42 15 -63q15 -22 39 -22z" />
    <glyph glyph-name="one" unicode="1" horiz-adv-x="319" 
d="M62 -24q-9 0 -21 12q-11 13 -11 36q0 42 38 129q40 89 96 187q57 100 108 178q-78 -39 -108 -39q-33 0 -33 25q0 3 2 9q1 6 8 9q7 4 11 4q6 0 13 -5q24 2 69 25q49 25 91 52q5 3 9 3q23 0 23 -22q0 -6 -3 -9q-139 -214 -216 -366q-68 -136 -68 -178q0 -6 2 -12
q10 -4 10 -16q0 -5 -3 -11q-7 -11 -17 -11z" />
    <glyph glyph-name="two" unicode="2" horiz-adv-x="645" 
d="M50 -7q-10 0 -17 10q-3 6 -3 12q0 9 9 17q75 50 230 177q231 190 292 293q12 24 12 36q0 23 -48 23q-63 0 -138 -36q-75 -39 -75 -77v-7q0 -8 -5 -14q-4 -7 -15 -7q-22 0 -22 27q0 64 98 115q82 42 157 42q46 0 73 -24q17 -17 17 -44q0 -22 -18 -54q-88 -145 -404 -387
q73 24 152 24q71 0 115 -47q5 -7 5 -12q0 -12 -7 -18q-7 -5 -12 -5q-11 0 -17 8q-33 33 -92 33q-9 0 -49 -3q-41 -3 -113 -30q-69 -24 -114 -49q-5 -3 -11 -3z" />
    <glyph glyph-name="three" unicode="3" horiz-adv-x="553" 
d="M49 -13q-37 0 -53 15q-18 14 -18 33q0 20 21 20q11 0 18 -13q5 -14 30 -14q21 0 28 4q106 23 215 105q110 80 119 156q0 14 -3 23t-7 11q-2 2 -4 3l-2 2q-17 7 -34 7q-23 0 -74 -16q-48 -15 -93 -41l-11 -2q-21 0 -21 21q0 9 9 17l57 42q142 105 230 182q23 23 23 28
q-6 4 -21 4q-23 0 -68 -9q-54 -11 -103 -34q-43 -22 -55 -45q-6 -11 -17 -13q-2 0 -12 4q-7 3 -9 8q-2 8 -2 9q0 4 3 9q30 53 116 83q85 30 144 30h6q62 -5 62 -45q0 -14 -11 -30q-23 -35 -198 -166q19 5 43 5q94 0 94 -87q-12 -102 -138 -192q-159 -114 -264 -114z" />
    <glyph glyph-name="four" unicode="4" horiz-adv-x="531" 
d="M174 -14q-4 0 -11 4q-7 5 -8 9q-1 3 -1 7q0 6 3 11q61 104 151 266l-255 -20q-9 0 -16 6q-7 5 -7 14q0 13 13 19q79 40 175 172q68 93 88 134q6 10 20 10q3 0 9 -2q11 -8 11 -18q0 -7 -37 -66q-96 -146 -181 -221l203 15q113 206 129 259q-3 5 -3 10q3 19 23 19
q18 -2 21 -19l-1 -14q-11 -53 -119 -250l33 3q22 0 22 -22q0 -17 -19 -20l-59 -4q-163 -302 -184 -302z" />
    <glyph glyph-name="five" unicode="5" horiz-adv-x="471" 
d="M2 -3q-15 0 -28 5q-31 13 -31 43q0 6 5 13q6 7 16 7q18 0 21 -17q0 -9 18 -9q32 0 103 31q70 29 158 97q99 84 99 120q0 43 -74 43q-87 0 -194 -39l-6 -1q-10 0 -16 7q-7 7 -7 14q0 5 149 283q5 9 18 11l273 9q18 0 21 -20q0 -22 -20 -22l-262 -8l-115 -217q89 25 156 25
q46 0 82 -18q36 -23 36 -64q0 -39 -35 -80q-34 -42 -79 -76q-60 -48 -145 -93q-85 -44 -143 -44z" />
    <glyph glyph-name="six" unicode="6" horiz-adv-x="548" 
d="M131 -19q-13 0 -23 3q-78 18 -78 117q0 90 78 228q96 161 204 232q86 55 138 55q14 0 29 -5q39 -15 39 -59q0 -5 -2 -23q-3 -13 -20 -13q-21 0 -21 21l2 15q0 13 -7 18t-22 5q-36 0 -119 -52q-79 -51 -167 -182q103 45 167 45q47 0 70 -25q23 -26 23 -60q0 -47 -40 -118
q-43 -75 -110 -136q-70 -66 -141 -66zM129 24q48 0 111 51q63 52 106 128q34 61 34 98q0 17 -11 30q-11 12 -38 12l-26 -1q-52 -3 -179 -63q-53 -111 -53 -176q0 -79 56 -79z" />
    <glyph glyph-name="seven" unicode="7" horiz-adv-x="397" 
d="M51 -9q-5 0 -10 3q-11 6 -11 17q0 7 165 284q-37 0 -75 -9h-4q-8 0 -14 5q-8 4 -8 15q0 32 127 32l132 223q-99 -33 -178 -33q-42 0 -74 13q-11 6 -11 20l1 7q6 11 19 13q6 0 10 -3q27 -8 58 -8q35 0 101 15t113 33l7 2q9 0 15 -8t6 -15q0 -5 -153 -262q69 -6 73 -10
q18 -3 18 -20q0 -1 -2 -7q0 -1 -7 -10q-7 -5 -13 -5l-2 1h-2q-1 1 -27 4q-20 4 -61 7l-174 -293q-8 -11 -19 -11z" />
    <glyph glyph-name="eight" unicode="8" horiz-adv-x="540" 
d="M174 -16q-71 0 -122 49q-22 22 -22 59q0 65 125 181q27 25 46 46q7 6 15 6l8 -1q-38 84 -38 153q0 101 126 140q31 9 64 9q14 0 47 -3q31 -3 63 -35q24 -24 24 -62q0 -22 -11 -53q-48 -114 -197 -228q29 -72 29 -120q0 -87 -81 -125q-40 -16 -76 -16zM171 26q33 0 62 13
q56 20 56 84l-1 22q-15 77 -51 147l-1 4q-1 -5 -52 -53q-112 -104 -112 -152q0 -16 12 -31q30 -34 87 -34zM286 285q133 107 174 203q8 22 8 37q0 21 -12 34q-26 25 -76 25q-23 0 -56 -7q-98 -32 -98 -102q0 -54 52 -172z" />
    <glyph glyph-name="nine" unicode="9" horiz-adv-x="499" 
d="M126 -3q-52 0 -94 65q-2 6 -2 9q0 23 21 23q13 0 17 -9q17 -25 30 -35q14 -11 34 -11q65 16 139 152t128 286q-177 -171 -256 -171q-11 0 -20 3q-35 12 -35 51q0 48 40 112q38 63 113 112q55 32 98 32q29 0 53 -15q21 -17 29 -43q1 2 3 4t5 4.5t4 3.5q6 7 16 7q5 0 12 -4
q8 -5 8 -16q0 -13 -59 -170q-135 -360 -273 -388zM146 348q23 0 70 31q66 43 163 137l2 19q0 37 -41 39q-32 0 -78 -26q-62 -41 -97 -96q-35 -54 -35 -87q0 -11 6 -17h10z" />
    <glyph glyph-name="colon" unicode=":" horiz-adv-x="372" 
 />
    <glyph glyph-name="semicolon" unicode=";" horiz-adv-x="341" 
 />
    <glyph glyph-name="semicolon" unicode="&#x37e;" horiz-adv-x="341" 
 />
    <glyph glyph-name="less" unicode="&#x3c;" horiz-adv-x="645" 
 />
    <glyph glyph-name="equal" unicode="=" horiz-adv-x="526" 
 />
    <glyph glyph-name="greater" unicode="&#x3e;" horiz-adv-x="623" 
 />
    <glyph glyph-name="question" unicode="?" horiz-adv-x="769" 
 />
    <glyph glyph-name="at" unicode="@" horiz-adv-x="773" 
 />
    <glyph glyph-name="A" unicode="A" horiz-adv-x="1641" 
d="M1495 -396l-4 1q-93 12 -93 208q0 163 74 409q-111 36 -241 62q-674 -568 -1038 -598q-92 0 -132 28q-40 27 -51 56q-10 26 -10 59q0 105 118 230q211 211 568 275q113 20 244 20q146 0 288 -26q319 266 574 515q39 46 56 46q8 0 14 -6q6 -7 6 -16q0 -5 -50 -57
q-182 -215 -295 -561q69 -22 129 -49q13 -4 13 -19q0 -5 -3 -9q-3 -7 -8 -9q-6 -3 -9 -3l-9 1q-63 27 -126 48q-71 -234 -71 -391q0 -158 61 -173q16 -3 16 -20q0 -21 -21 -21zM191 -273q338 29 984 565q-120 20 -246 20t-236 -20q-346 -62 -545 -261q-106 -115 -106 -202
q0 -102 140 -102h9zM1485 261q71 217 175 400q-172 -163 -388 -343q105 -22 213 -57z" />
    <glyph glyph-name="B" unicode="B" horiz-adv-x="1634" 
d="M758 -361q-154 0 -285 32q-129 31 -188 103q-35 40 -35 100q0 56 46 133q9 10 20 10q4 0 12 -5q6 -4 8 -15q0 -3 -4 -13q-39 -61 -39 -112q0 -40 25 -72q114 -116 435 -116q272 0 485 67q177 62 183 133q-5 82 -117 141q-116 58 -271 92q-153 33 -291 49
q-126 -243 -126 -297l1 -10q0 -18 -16 -21q-2 -2 -4 -2q-22 0 -22 30q0 73 121 304q-34 4 -62 6q-20 3 -20 20q0 18 19 21q17 2 49 6.5t46 6.5q86 159 179 300q126 191 173 191q12 0 21 -7q8 -6 8 -16q0 -21 -22 -21h-7q-14 0 -72 -74q-98 -127 -227 -366q501 82 707 203
q194 113 194 212q0 98 -143 166q-128 64 -361 64h-20q-452 -26 -767 -159q-329 -140 -349 -247q0 -13 20 -24q11 -8 11 -18q0 -6 -4 -13q-5 -9 -16 -9q-4 0 -10 2q-43 24 -43 63q14 132 375 283q333 140 781 163l28 1q221 0 374 -68q166 -73 166 -204q0 -116 -203 -241
q-203 -126 -713 -211q120 -14 280 -52q151 -37 262 -102t112 -164q-3 -100 -209 -169q-219 -71 -495 -74z" />
    <glyph glyph-name="C" unicode="C" horiz-adv-x="1446" 
d="M633 -382q-535 0 -622 306q-11 49 -11 92q0 138 119 292q118 152 345 289q226 137 453 210q205 69 383 69q174 0 227 -113q9 -30 9 -58q0 -153 -271 -289q-90 -45 -206 -79q-125 -36 -221 -36q-78 0 -105 37q-8 14 -8 28q0 60 130 158q5 4 12 4q10 0 16 -7q6 -8 6 -14
q0 -9 -9 -16q-113 -89 -113 -125q0 -24 71 -24q168 0 409 111q154 74 221 169q27 37 27 80q0 24 -7 46q-46 87 -201 87q-138 0 -357 -67q-209 -69 -431 -200q-218 -130 -354 -296q-103 -127 -103 -257q0 -42 10 -79q36 -127 161 -194q159 -81 401 -81q204 0 408 34
q206 33 351 72q43 11 79.5 20.5t53.5 14.5l18 5q8 2 10 2q20 0 20 -21q0 -5 -4 -12q-3 -8 -166 -50q-412 -108 -751 -108z" />
    <glyph glyph-name="D" unicode="D" horiz-adv-x="1999" 
d="M588 -399q-203 2 -260 113q-15 30 -15 60q0 44 32 91q56 79 174 139q117 60 246 87q95 179 229 372q173 251 223 251q24 0 24 -22t-23 -22q-26 -12 -94 -101q-157 -202 -306 -468q65 10 109 10q169 0 210 -96l2 -8q0 -21 -21 -21q-13 0 -19 13q-33 70 -178 70
q-57 0 -127 -14q-82 -153 -82 -204l4 -16q0 -21 -21 -21q-11 0 -18 10q-7 12 -7 25q0 53 71 195q-121 -34 -217 -86q-99 -54 -144 -117q-25 -35 -25 -68q0 -21 10 -40q49 -90 224 -90q35 0 88 5q377 52 771 288q395 236 483 502q8 29 8 65q0 144 -162 255q-166 107 -479 107
q-182 0 -422 -38q-369 -68 -588 -211q-237 -153 -246 -302q0 -78 87 -119q13 -7 13 -19q0 -22 -22 -22l-8 2q-112 54 -112 158q0 158 255 331q228 153 614 222q210 40 447 40q24 0 165 -3q142 -1 319 -111q181 -124 181 -289q0 -38 -10 -77q-55 -194 -278 -372
q-221 -176 -502 -298q-359 -156 -603 -156z" />
    <glyph glyph-name="E" unicode="E" horiz-adv-x="1238" 
d="M594 -392q-249 0 -377 134q-76 86 -76 204q0 92 46 197q-63 -17 -91 -28q-54 -19 -54 -28q0 -19 -21 -22q-21 0 -21 23q0 24 25 40q60 35 185 62q36 70 95 147q225 280 398 444q-362 -41 -529 -154q-50 -39 -50 -82q0 -12 4 -23l1 -8q0 -19 -20 -19q-27 0 -27 50
q0 19 7 44q8 29 59 71q164 122 606 169q77 73 87 73q9 0 15 -6q5 -8 5 -16q-2 -10 -40 -44h6q99 8 218 8q87 0 207 -7q129 -7 212 -51q40 -27 40 -59q0 -18 -8 -23t-18 -5q-17 3 -17 19l1 11q-5 10 -20 21q-92 51 -388 51q-140 0 -283 -13q-178 -163 -433 -477
q-41 -52 -75 -109q281 54 551 54q195 0 276 -51q5 -5 7 -15q0 -22 -22 -22q-5 0 -12 5q-65 40 -251 40q-42 0 -195 -6q-159 -8 -378 -53q-56 -112 -56 -208q0 -102 64 -176q114 -122 356 -122h15q15 1 48 1.5t71 0.5q127 1 428 176q7 5 11 5q20 0 20 -22q0 -13 -10 -17
q-301 -184 -592 -184z" />
    <glyph glyph-name="F" unicode="F" horiz-adv-x="1487" 
d="M758 -412q-19 0 -32 10q-7 7 -7 16q0 18 19 21q9 0 14 -4q2 -2 5 -2q7 0 27 9q88 51 209 215q125 169 218 370q-196 -5 -411 -37q-219 -33 -351 -91q-71 -30 -71 -56q0 -10 -6 -16q-6 -7 -15 -7q-8 0 -15 7l-5 16q0 114 454 187q229 36 437 39q78 182 78 326
q0 157 -134 205q-117 34 -246 34q-181 0 -448 -96q-267 -94 -404 -272q-32 -47 -32 -81q0 -27 17 -47q5 -7 5 -19q0 -14 -18 -14q-12 0 -20 6q-23 26 -26 70q0 51 39 109q145 185 496 311q207 73 398 73q133 0 254 -34q148 -56 161 -226q0 -165 -74 -345q236 -5 236 -81
q0 -30 -21 -30q-4 0 -8 2q-14 5 -14 18q0 6 1 8v5q-35 35 -212 36q-100 -221 -228 -392q-178 -243 -270 -243z" />
    <glyph glyph-name="G" unicode="G" horiz-adv-x="1359" 
d="M616 -413q-37 0 -57 11q-48 24 -48 82q0 85 135 214t465 249q37 76 57 132q-474 -283 -750 -322q-70 -10 -134 -10q-167 0 -233 79q-51 62 -51 133q0 81 65 176q147 187 407 327q258 139 508 197q110 25 196 25q180 0 205 -106q93 109 153 109q10 0 21 -6q11 -4 11 -16
q0 -22 -21 -22l-12 2q-13 0 -43 -21q-58 -44 -110 -114q-12 -64 -84 -165q-6 -9 -16 -9q-21 2 -21 23q0 59 82 169l2 20q0 39 -32 66q-53 29 -137 29q-160 0 -437 -104q-444 -181 -637 -428q-58 -83 -58 -152q0 -57 39 -104q55 -67 201 -67q61 0 249 31q179 31 665 326
q4 3 11 3q21 0 21 -21q0 -17 -63 -162q140 46 208 58q5 0 13 -5q7 -5 7 -15q0 -16 -16 -22q-132 -32 -236 -67q-83 -175 -262 -366q-168 -157 -263 -157zM609 -373q81 0 241 146q150 159 232 315q-274 -106 -398 -215q-132 -115 -132 -194q0 -5 4 -23q5 -13 19 -20
q15 -9 34 -9z" />
    <glyph glyph-name="H" unicode="H" horiz-adv-x="1848" 
d="M1398 -398q-43 0 -43 57q0 55 36 158q36 105 91 227q58 131 96 208q-212 26 -518 32q-320 -558 -622 -558q-112 0 -217 54q-107 55 -163 129q-58 74 -58 144q0 37 14 68q57 162 487 196q161 11 381 11l154 -1q98 173 191 387q16 33 16 49q0 30 -47 30q-86 0 -169 -81
q-6 -7 -14 -7t-14 6q-8 6 -8 14q0 9 6 15q93 94 198 94q54 0 77 -32q13 -16 13 -41q0 -18 -12 -44q-69 -176 -188 -392q280 -6 512 -34l13 27q148 285 238 427q94 150 139 150q26 0 31 -29q0 -20 -21 -20q-7 0 -15 6q-42 -31 -137 -190q-96 -158 -204 -377q174 -24 217 -63
q13 -13 13 -32q-3 -18 -23 -18q-19 3 -20 22t-207 52q-108 -219 -180 -412q-44 -126 -44 -169q0 -18 1 -20q17 -3 20 -20q0 -20 -20 -23zM433 -233q275 0 580 518l-127 2q-204 0 -382 -12q-382 -27 -452 -171q-10 -26 -10 -53q0 -21 12 -56q14 -35 34 -59q63 -80 176 -131
q84 -38 169 -38z" />
    <glyph glyph-name="I" unicode="I" horiz-adv-x="660" 
d="M59 -412q-15 0 -25 6q-10 4 -15 11t-5 12q0 23 19 23q11 0 16 -5q5 -6 12 -6q4 0 16 5q89 48 233 262q143 215 248 457q95 219 95 360q0 13 -2 37q-10 85 -94 85q-182 0 -329 -173q-148 -172 -181 -341q-5 -25 -5 -48q0 -11 3 -33q1 -23 34 -34q16 -4 16 -22
q0 -20 -21 -20q-17 2 -38 17q-36 25 -36 90q0 22 5 57q34 177 197 368q151 181 354 181l27 -1q32 -3 66 -29q45 -36 45 -130q0 -149 -102 -389q-105 -244 -251 -459q-189 -281 -282 -281z" />
    <glyph glyph-name="J" unicode="J" horiz-adv-x="1358" 
d="M259 -417q-152 0 -222 85q-37 52 -37 110q0 68 46 145q104 171 385 266q169 57 393 57q145 0 322 -26q32 74 54 156q44 176 44 327q0 95 -6 137q-81 -7 -158 -26q-183 -42 -314 -128q-119 -77 -119 -170l2 -22q0 -18 -18 -20q-2 -2 -4 -2q-22 0 -22 42q0 113 136 204
q136 92 328 137q90 21 174 27l9 4q7 0 13 -3l46 2q207 0 243 -112v-5q0 -6 -4 -14q-5 -8 -16 -8q-17 0 -20 15q-32 81 -210 81h-25q7 -38 7 -123l-2 -108q-1 -76 -43 -247q-19 -72 -54 -151l62 -13q16 -1 16 -20q0 -20 -20 -20q-7 0 -76 13q-174 -377 -636 -538
q-159 -52 -274 -52zM257 -374q110 0 263 49q428 142 607 505q-166 25 -295 25q-392 0 -617 -168q-174 -127 -174 -259q0 -45 28 -84q62 -68 188 -68z" />
    <glyph glyph-name="K" unicode="K" horiz-adv-x="1450" 
d="M341 -396h-3q-79 12 -79 90q0 122 153 344q-63 57 -68 64q-4 4 -4 13q0 7 5 14q7 7 13 7q9 0 15 -3q33 -26 82 -30l95 140q110 160 197 302q80 134 80 205q0 54 -99 54q-58 0 -172 -36q-113 -36 -263 -128q-149 -93 -221 -188q-30 -45 -30 -78q0 -37 29 -51q6 -5 8 -15
q0 -23 -21 -23q-6 0 -12 3q-46 32 -46 86q0 2 0.5 5.5t1 10t0.5 12.5q1 20 36 73q116 155 388 286q70 35 198 71q56 14 98 14q63 0 114 -27q34 -24 34 -68q0 -82 -82 -219q-81 -136 -286 -432q164 4 391 115q224 109 436 267q336 267 336 364q0 10 -1 14q-1 3 -1 9
q0 20 20 20q5 0 13 -4q10 -4 10 -36q0 -55 -61 -132q-61 -78 -149 -154q-283 -243 -604 -396q-231 -109 -417 -109l-7 -13q126 -117 386 -211q111 -41 231 -41q166 0 359 77l9 1q20 -3 20 -20q0 -14 -12 -20q-181 -78 -345 -78q-223 0 -404 91q-170 82 -267 167
q-147 -228 -147 -311q0 -17 4 -29q9 -22 43 -26q16 -4 16 -24q-3 -17 -20 -17z" />
    <glyph glyph-name="L" unicode="L" horiz-adv-x="1170" 
d="M151 -481q-38 0 -69 14q-82 40 -82 121q0 19 11 47q30 70 153 104q91 25 290 36q115 182 245 425q139 261 253 435q126 194 221 194q45 0 79 -43q5 -7 5 -12q0 -22 -20 -22q-12 0 -18 8q-24 27 -46 27q-79 -6 -200 -197q-118 -185 -237 -410q-119 -220 -230 -404
q83 4 192 4q130 0 322 -9q187 -9 372 -44q181 -35 215 -92q3 -4 3 -10q0 -20 -21 -20q-11 0 -19 12q-24 74 -617 115q-147 6 -281 6q-100 0 -193 -3q-75 -117 -147 -195q-99 -87 -181 -87zM155 -439q25 0 61 13q81 30 211 224q-169 -10 -252 -33q-134 -41 -134 -114
q0 -52 58 -79q19 -11 56 -11z" />
    <glyph glyph-name="M" unicode="M" horiz-adv-x="2894" 
d="M1052 -398q-6 0 -10 3q-11 6 -11 19q0 5 4 10q5 7 57 118t110 276q59 170 79 330q6 45 6 85q0 307 -271 325q-246 -4 -527 -229q-279 -224 -406 -428q-42 -72 -42 -118q4 -19 29 -21h30q23 0 23 -19q0 -11 -5 -17q-6 -7 -33 -7q-85 0 -85 73q0 49 47 131q131 211 422 442
q292 232 550 235q188 -15 262 -150q47 -98 47 -225q0 -79 -33 -238q-33 -160 -115 -348q398 580 731 873q182 163 315 163q149 -9 149 -168q0 -155 -154 -430q161 192 317 330q143 130 238 130q77 0 77 -89q0 -90 -123 -363q-135 -303 -135 -410q0 -35 13 -63q20 -28 68 -29
q20 0 20 -21q0 -20 -22 -20q-121 2 -121 135q0 115 140 424q116 265 116 345q0 21 -5 35q-6 15 -32 15q-133 0 -487 -411q-151 -173 -278 -345q-5 -8 -13 -9q-23 0 -23 23q0 6 4 11q7 7 67 99q66 98 140 228q76 132 123 265q30 84 30 147q0 109 -92 129h-16
q-140 0 -364 -221q-225 -224 -446 -519q-230 -307 -347 -491q-7 -10 -18 -10z" />
    <glyph glyph-name="N" unicode="N" horiz-adv-x="2325" 
d="M957 -396q-5 0 -13 5q-8 6 -8 17q0 4 7 15q36 45 150 216q114 173 200 369q58 131 58 232q0 51 -15 93q-39 90 -190 90q-208 0 -448 -112q-240 -110 -431 -274q-189 -162 -222 -289q-4 -20 -4 -28q0 -52 59 -73q14 -8 14 -20q-4 -21 -20 -21l-9 2q-85 34 -85 113
q0 17 3 36q36 136 230 306q197 172 455 290q237 112 456 112q249 0 249 -219q0 -74 -38 -188q-37 -116 -125 -273q120 147 247 291q535 604 742 604q21 0 35 -5q83 -23 83 -131q0 -129 -171 -488q-160 -345 -160 -452q0 -62 39 -75q14 -7 14 -20q0 -21 -21 -21l-7 1
q-67 24 -67 117q0 120 165 467q166 351 166 473q0 90 -71 90q-121 0 -351 -214q-225 -208 -483 -510q-249 -296 -403 -499q-18 -27 -30 -27z" />
    <glyph glyph-name="O" unicode="O" horiz-adv-x="1201" 
d="M361 -420q-87 0 -136 32q-114 76 -114 248q0 39 6 81q-117 41 -117 182q12 248 264 504q262 253 565 253h10q282 -16 302 -321v-4q0 -292 -209 -606q-234 -328 -526 -366q-22 -3 -45 -3zM360 -378q12 0 42 2q201 29 359 187q161 161 250 367q88 200 88 369
q0 273 -262 291q-328 -12 -548 -246q-236 -250 -248 -467q0 -37 13 -77q14 -41 70 -64q43 196 151 367q209 320 441 320q7 0 21 -2q8 0 15 -7q5 -7 5 -17q-3 -17 -20 -17l-21 1q-210 0 -406 -300q-113 -184 -146 -358q9 -6 9 -17q0 -15 -14 -20q-6 -40 -6 -75
q0 -237 207 -237z" />
    <glyph glyph-name="P" unicode="P" horiz-adv-x="1539" 
d="M480 -445l-8 2q-38 17 -38 78q0 101 130 376q-117 11 -164 65q-5 7 -5 12q0 11 8 17q7 6 16 6q7 -2 13 -9q36 -40 152 -52q71 138 148 260q149 236 196 236q27 0 27 -21q0 -22 -23 -22q-34 -16 -123 -149q-93 -141 -179 -305q229 0 469 82q242 82 400 243
q126 136 126 234q0 51 -34 91q-123 125 -465 125q-58 0 -141 -5q-466 -40 -758 -224q-96 -58 -156 -158q-29 -48 -29 -105q0 -62 32 -129q1 -2 1 -8q0 -2 -2 -10q-3 -7 -9 -9q-8 -4 -11 -4q-13 0 -17 12q-36 75 -36 144q0 164 204 302q302 188 778 231q67 4 141 4
q367 0 499 -139q42 -43 42 -122q0 -10 -3 -61t-131 -197q-160 -164 -414 -251q-254 -88 -467 -88h-41q-112 -222 -130 -357v-36q2 -13 13 -20q11 -6 11 -18q0 -4 -3 -9q-7 -12 -19 -12z" />
    <glyph glyph-name="Q" unicode="Q" horiz-adv-x="1599" 
d="M28 -680q-12 0 -19 13q-9 19 -9 42q0 28 20 77q20 47 137 119q189 106 479 170q-139 3 -207 92q-37 49 -37 137l1 25q28 236 171 392q143 155 265 155q82 -9 82 -106v-6q0 -20 -22 -20q-20 0 -20 21v9q0 28 -8 40q-7 12 -19 17q-10 3 -16 3q-99 0 -231 -144
q-131 -142 -160 -363l-1 -27q0 -183 215 -183q113 0 308 80q194 80 381 298q144 183 144 370q0 113 -61 198q-90 109 -244 109q-122 0 -276 -65q-322 -147 -464 -348q-143 -198 -143 -346q0 -81 40 -105q11 -6 11 -18q0 -21 -21 -21q-6 0 -10 3q-62 35 -62 140
q0 158 150 369q149 212 481 365q164 68 294 68q175 0 277 -127q71 -95 71 -222q0 -28 -14 -134q-15 -103 -142 -262q-209 -246 -498 -349q185 26 337 26q47 0 180 -8q125 -9 194 -82q23 -24 23 -71q0 -11 -1 -28q-1 -25 -65 -99q-6 -7 -14 -7q-7 0 -15 5q-7 7 -7 15
q0 6 6 14q55 62 55 106q0 20 -13 38q-73 75 -323 75h-15q-15 -1 -48.5 -1.5t-71.5 -0.5q-131 -2 -426 -63t-488 -170q-61 -34 -105 -82q-32 -35 -32 -72q0 -17 6 -33l1 -8q0 -6 -2 -9q-3 -7 -9 -8q-6 -3 -10 -3z" />
    <glyph glyph-name="R" unicode="R" horiz-adv-x="1701" 
d="M486 -413q-6 0 -14 6q-31 28 -31 91q0 117 100 327q-60 34 -71 41q-10 6 -10 17q0 20 19 21l107 10q84 160 182 286q110 140 181 140q28 0 46 -24q4 -5 4 -12q0 -22 -21 -22q-10 0 -16 9q-6 8 -15 8q-46 0 -144 -122q-82 -105 -167 -258q600 77 880 237q269 153 269 284
q0 90 -141 152q-109 47 -324 47q-69 0 -132 -4q-581 -55 -845 -241q-263 -184 -292 -329q-10 -33 -10 -61q0 -54 37 -82q8 -8 8 -17q0 -7 -5 -15q-6 -7 -16 -7q-7 0 -11 4q-54 43 -54 117q0 36 10 73q56 200 351 377q294 176 824 223q71 3 134 3q238 0 373 -64t135 -170
q0 -173 -311 -337q-314 -165 -903 -235l-16 -31q364 -199 681 -215q151 0 248 91q6 7 14 7q9 0 16 -6q6 -8 6 -15q0 -9 -6 -15q-110 -104 -273 -104q-181 0 -392 80q-192 72 -313 139q-95 -201 -95 -307q0 -42 18 -60q7 -7 7 -14q0 -23 -22 -23zM559 49l4 7l-14 -2z" />
    <glyph glyph-name="S" unicode="S" horiz-adv-x="1151" 
d="M349 -394q-47 0 -86 13q-73 22 -73 94q0 83 117 216q5 5 15 7q8 0 15 -6t7 -16q0 -7 -5 -12q-107 -124 -107 -191q0 -16 6 -25q27 -38 110 -38q46 0 110 12q166 34 310 124q143 89 165 191q0 90 -146 134q-145 43 -329 69q-153 21 -289 58q-128 35 -162 104q-7 17 -7 36
q0 42 35 92q151 193 548 338q242 82 402 82q221 0 254 -144q3 -14 3 -31q0 -72 -61 -190q-6 -10 -17 -10q-6 0 -12 3q-7 3 -8 9q-2 8 -2 9q0 3 2 9q55 101 55 170q0 134 -213 134q-78 0 -236 -34q-157 -34 -375 -142q-212 -107 -305 -227q-28 -38 -28 -68q0 -11 4 -20
q29 -54 149 -84q117 -30 270 -52q200 -28 360 -79q148 -49 148 -162v-11q-27 -132 -189 -225q-241 -137 -435 -137z" />
    <glyph glyph-name="T" unicode="T" horiz-adv-x="705" 
d="M333 -397q-18 0 -43 23q-23 25 -23 74q0 115 94 324q92 208 225 433q134 225 229 354q-247 -31 -469 -97q-302 -93 -304 -197q0 -19 -21 -23q-21 0 -21 25q0 134 335 236q223 66 515 102q38 47 53 47q23 0 23 -20q0 -14 -13 -20q202 20 369 20q94 0 260 -12t228 -97
q11 -17 11 -41q0 -8 -3 -29q-5 -23 -50 -68q-6 -6 -14 -6q-20 0 -20 21q0 8 5 15q40 39 40 68q0 8 -5 18q-69 90 -446 90q-195 0 -417 -25q-82 -106 -218 -329q-137 -225 -243 -453q-101 -212 -101 -333q0 -49 30 -60q16 -3 16 -18q0 -22 -22 -22z" />
    <glyph glyph-name="U" unicode="U" 
d="M1087 -516l-10 1q-61 34 -61 139q0 137 100 377q102 245 243 496q-94 -124 -224 -280q-453 -530 -689 -530q-44 0 -81 18q-90 45 -90 157q0 170 256 559q90 146 132 223q46 86 46 128q0 20 -12 30q-13 10 -75 10q-129 0 -306 -78q-176 -77 -257 -199q-17 -28 -17 -56
q0 -32 23 -55q4 -4 4 -11q0 -24 -21 -24q-9 0 -15 8q-33 36 -33 80q0 35 23 78q86 133 293 224q169 74 305 74q80 0 104 -21q23 -20 23 -54q0 -110 -181 -378q-251 -383 -251 -537q0 -88 68 -121q31 -11 64 -11q129 0 339 186q208 185 439 477q235 299 357 489q7 9 17 9
q6 0 14 -6q8 -5 8 -15q0 -7 -3 -11q-5 -6 -101 -167q-97 -165 -209 -378q-253 -484 -253 -687q0 -83 41 -106q11 -6 11 -18q0 -6 -2 -9q-7 -11 -19 -11z" />
    <glyph glyph-name="V" unicode="V" horiz-adv-x="1246" 
d="M705 -388h-6q-15 4 -15 20l1 4q33 204 33 365q0 143 -42 311q-42 171 -146 282q-182 195 -379 195q-77 0 -103 -27q-6 -4 -6 -16q0 -9 4 -16q5 -8 5 -15q0 -20 -22 -20q-9 0 -17 11q-12 21 -12 41q0 23 18 44q40 40 134 41q97 0 212 -54q79 -34 183 -140
q103 -104 169 -313q43 -135 43 -330q0 -104 -12 -224q81 176 237 445q149 259 336 470q170 189 329 189q8 0 28 -2q15 -1 15 -18q0 -22 -20 -22l-24 2q-135 0 -292 -169q-155 -169 -299 -410q-140 -233 -236 -429q-95 -197 -97 -202q-6 -13 -19 -13z" />
    <glyph glyph-name="W" unicode="W" horiz-adv-x="2026" 
d="M1250 -410q-14 0 -28 3q-94 35 -116 184q-13 79 -13 178q0 223 60 526q-90 -155 -217 -296q-128 -145 -250 -210q-64 -32 -115 -32q-45 0 -82 25q-64 51 -64 136q0 111 104 342q86 198 86 268q0 23 -8 44q-15 38 -108 38q-96 0 -232 -65q-136 -66 -204 -173
q-21 -38 -21 -69q0 -38 31 -66q8 -6 8 -15q0 -21 -20 -21q-10 0 -16 5q-45 44 -45 96q0 42 27 90q77 122 245 203q119 57 224 57q46 0 87 -10q74 -24 74 -113q0 -84 -90 -285q-57 -129 -89 -252q-10 -36 -10 -69q0 -69 45 -106q25 -18 58 -18q40 0 96 28q157 87 309 285
q152 199 212 353l20 85q3 16 19 16q21 0 21 -22q0 -40 -21 -96q-39 -173 -69 -394q-23 -170 -23 -307q0 -55 7 -157q8 -110 92 -143l12 -1q121 0 365 286q188 230 307 470q88 175 88 287q0 43 -13 75q-24 51 -102 51h-13q-22 0 -22 20q0 21 29 21q115 0 145 -73
q16 -41 16 -93q0 -129 -116 -353q-116 -225 -288 -431q-66 -83 -178 -186q-113 -105 -214 -116z" />
    <glyph glyph-name="X" unicode="X" horiz-adv-x="1332" 
d="M110 -356q-8 0 -15 6q-34 36 -34 78q9 130 277 310q238 163 567 344q-4 143 -38 254q-35 109 -130 146q-53 15 -106 15q-81 0 -193 -47q-112 -48 -216 -145q-89 -83 -138 -163q-43 -67 -43 -112q0 -35 33 -44q15 -3 15 -19q-3 -21 -20 -21q-69 12 -69 84q0 59 53 144
q52 80 140 161q138 132 322 189q54 16 111 16q213 0 274 -175q39 -112 45 -260q6 3 10 7q248 136 451 264q199 126 229 201l1 6q0 8 -3 13q-2 8 -2 12q0 19 19 19q14 0 21 -13q7 -11 7 -29q0 -85 -229 -230q-211 -135 -472 -280q-10 -6 -30 -16l3 -78q0 -209 43 -360
q42 -153 217 -164q21 0 21 -22q-3 -20 -21 -20q-205 14 -253 180q-49 165 -49 379q0 26 -2 62q-291 -162 -536 -325q-239 -159 -266 -273l-1 -10q0 -27 21 -48q7 -6 7 -14q0 -9 -6 -15q-7 -7 -15 -7z" />
    <glyph glyph-name="Y" unicode="Y" horiz-adv-x="1151" 
d="M252 -450q-54 2 -85 20q-62 41 -62 115q0 162 226 291q187 106 528 123q208 323 332 585q-168 -191 -407 -369q-242 -182 -433 -194q-40 0 -72 13q-70 25 -70 95q0 65 61 159q67 102 155 209q149 179 149 227q0 6 -9 9t-41 3q-101 0 -241 -58q-139 -58 -215 -148
q-27 -38 -27 -66q0 -11 3 -20q4 -10 4 -12q0 -4 -3 -8q-3 -5 -9 -8q-4 -3 -9 -3q-27 0 -27 52q0 13 2 26q2 19 33 63q85 100 244 167q135 57 245 57q58 0 74 -15q17 -14 17 -36q0 -75 -157 -256q-82 -102 -148 -200q-59 -86 -59 -144q0 -62 102 -62q117 0 306 117
q190 119 375 299q187 180 246 296q7 11 21 11q1 0 9 -2q7 -3 8 -9q2 -3 2 -9q0 -9 -107 -234q-280 -580 -577 -876q-224 -208 -384 -208zM249 -409q39 0 122 27q81 27 236 170q115 112 223 268q-311 -21 -479 -118q-204 -117 -204 -251q0 -53 42 -80q24 -16 60 -16z" />
    <glyph glyph-name="Z" unicode="Z" horiz-adv-x="1000" 
d="M108 -469q-44 0 -72 20q-29 20 -29 66q0 18 4 35q36 135 236 297q200 164 500 239q-48 39 -152 39q-111 0 -219 -30l-7 -1q-19 0 -19 21q0 13 9 17q2 1 13.5 7.5t37.5 21t53 29.5q98 53 223 136q318 205 360 338q2 14 2 20q0 67 -112 67q-66 0 -163 -22
q-250 -61 -480 -182q-233 -123 -251 -207v-5q0 -3 5 -10q7 -7 16 -12q11 -5 13 -11t2 -8q0 -3 -4 -13q-4 -8 -16 -8q-7 0 -10 2q-48 24 -48 65q0 72 141 165q134 88 300 157q310 131 493 131q157 0 157 -108q0 -14 -5 -32q-77 -206 -591 -494q50 8 93 8q24 0 84 -5
q56 -5 104 -44q15 -15 24 -33q3 -3 3 -7q11 -27 11 -56q0 -21 -4 -38q-66 -266 -421 -462q-181 -93 -281 -93zM110 -428q83 0 260 90q338 186 398 433q4 15 4 33q0 16 -2 23q-312 -77 -501 -237q-220 -187 -220 -297q0 -45 61 -45z" />
    <glyph glyph-name="bracketleft" unicode="[" horiz-adv-x="781" 
 />
    <glyph glyph-name="backslash" unicode="\" horiz-adv-x="825" 
 />
    <glyph glyph-name="bracketright" unicode="]" horiz-adv-x="932" 
 />
    <glyph glyph-name="asciicircum" unicode="^" horiz-adv-x="460" 
 />
    <glyph glyph-name="underscore" unicode="_" horiz-adv-x="757" 
 />
    <glyph glyph-name="grave" unicode="`" horiz-adv-x="250" 
 />
    <glyph glyph-name="a" unicode="a" horiz-adv-x="602" 
d="M-31 -6q-45 0 -45 56q4 51 51 114q45 63 120 92q29 8 47 8q36 0 57 -25l35 38q6 8 17 8q5 0 12 -5q7 -6 7 -16l-2 -11q-24 -41 -40 -89q-10 -29 -10 -53q0 -33 14 -45q12 -11 49 -11q39 0 90 18q54 21 105 49q48 27 89 54q9 6 19 13t14.5 10t5.5 4q4 3 10 3q22 0 22 -20
q0 -10 -9 -18q-1 -1 -42 -29q-35 -25 -96 -58q-127 -68 -211 -68q-103 0 -103 97q0 23 7 47q-147 -163 -213 -163zM-32 34q12 0 34 15q67 43 168 157q-9 17 -30 17q-14 0 -30 -6q-50 -18 -87 -61q-37 -42 -51 -86q-6 -17 -6 -26q0 -8 2 -10z" />
    <glyph glyph-name="b" unicode="b" horiz-adv-x="581" 
d="M-38 -2q-4 0 -10 3q-5 1 -9 7q-3 6 -3 9l2 7q75 247 213 437q159 221 240 221q10 0 18 -4q9 -3 14 -10q5 -5 5 -12q0 -12 -6 -18q-8 -5 -16 -5t-14 7q-51 0 -174 -157q-107 -137 -193 -334q103 127 190 127q35 0 55 -21q15 -17 15 -40q0 -45 -51 -96q-34 -33 -86 -57
q122 0 428 141q8 2 11 2q19 0 19 -20q0 -15 -11 -20q-307 -147 -477 -147q-83 0 -120 26q-5 -7 -12.5 -18t-9.5 -15q-8 -13 -18 -13zM60 84q38 0 78 18q40 16 71 47q40 41 40 65q0 19 -31 19q-74 0 -186 -147z" />
    <glyph glyph-name="c" unicode="c" horiz-adv-x="530" 
d="M104 -4q-87 0 -114 23q-36 29 -36 71q0 66 82 127q43 26 79 37q38 13 67 18q25 4 31 4q23 0 23 -21q0 -10 -10 -16q-22 -16 -27 -26l-15 -28q-3 -19 -19 -19q-21 0 -21 20q0 16 12 37q-51 -11 -95 -41q-66 -44 -66 -92q0 -53 96 -53q99 0 244 57q128 51 196 106q5 4 12 4
q23 0 23 -20q0 -8 -8 -16q-80 -61 -208 -113q-134 -53 -246 -59z" />
    <glyph glyph-name="d" unicode="d" horiz-adv-x="619" 
d="M-28 -7q-37 0 -49 36q-2 12 -2 18q0 35 31 87q32 52 105 99q60 34 106 34q21 0 42 -8q31 108 89 217q55 105 118 159q37 31 71 31q35 0 49 -19q13 -19 13 -36q0 -52 -61 -135q-57 -79 -138 -161q-73 -75 -111 -109q-9 -45 -9 -79q0 -64 32 -77q20 -4 33 -4q58 0 156 50
q102 51 171 107q8 5 16 5q9 -2 13 -8q5 -6 5 -15q-1 -7 -8 -14q-6 -12 -127 -85q-134 -82 -227 -83q-106 0 -106 125q-28 -30 -49 -48q-105 -87 -163 -87zM255 283q93 89 173 188q75 93 75 137q0 6 -1 8q-2 4 -11 8q-68 0 -154 -155q-52 -93 -82 -186zM-28 34q40 0 137 78
q72 64 85 106q-14 8 -31 8q-35 0 -84 -29q-62 -40 -92 -88q-24 -39 -24 -62q0 -9 1 -11z" />
    <glyph glyph-name="e" unicode="e" horiz-adv-x="453" 
d="M59 3q-59 0 -91 24q-22 16 -22 50q0 27 23 68q78 120 161 120q61 -7 61 -55q0 -29 -32 -53q-55 -40 -123 -40q-21 0 -32 4q-16 -26 -16 -45q0 -32 69 -32q191 0 396 156q4 4 12 4q21 0 21 -20q0 -12 -8 -17q-97 -76 -211 -118q-117 -44 -208 -46zM38 159q51 0 97 32
q13 10 13 19q0 14 -26 14q-35 0 -92 -65h8z" />
    <glyph glyph-name="f" unicode="f" horiz-adv-x="493" 
d="M-160 -450q-7 0 -10 1q-45 13 -45 87q0 37 7 69q48 219 209 483l4 8q152 244 273 308q24 9 40 9q17 0 32 -10q31 -22 31 -52q0 -50 -76 -114q-109 -93 -267 -171q-36 -60 -53 -90q67 0 215 26t290 100q4 3 10 3q21 0 21 -21q0 -12 -11 -18q-219 -118 -486 -131
q45 -45 45 -120q0 -43 -13 -91q-33 -105 -96 -188q-66 -88 -120 -88zM84 241q86 48 170 110q85 64 85 102q0 5 -2 7q-4 6 -8 9q-5 4 -13 4t-22 -6q-89 -45 -210 -226zM-160 -408q30 0 85 69q57 69 90 176q12 39 12 78q0 5 -4 51q-4 35 -62 64q-99 -191 -127 -329
q-6 -36 -6 -58q0 -51 12 -51z" />
    <glyph glyph-name="g" unicode="g" horiz-adv-x="549" 
d="M-303 -554q-29 1 -46 7q-91 34 -94 141q0 85 85 173q84 88 278 144q121 33 182 52q31 76 61 161q-120 -130 -181 -130q-20 0 -34 14q-13 13 -13 38q0 40 31 93q30 54 86 92q51 33 91 33q31 0 53 -18q2 5 5.5 14.5t5.5 14.5q6 15 18 15q23 0 23 -21q0 -6 -2 -10
q-28 -115 -92 -281q150 47 233 95q85 50 164 128q7 5 13 5q23 0 23 -21q0 -8 -7 -14q-86 -85 -180 -138q-94 -52 -266 -105q-58 -144 -142 -269q-152 -213 -295 -213zM-302 -512q120 0 261 196q70 104 123 230q-34 -10 -151 -44q-179 -51 -255 -130q-77 -79 -77 -147
q1 -76 65 -99q15 -6 34 -6zM-19 35q27 0 85 51q64 56 110 122q-3 2 -5 5q-13 8 -28 8q-32 0 -68 -24q-44 -31 -70 -74q-25 -44 -28 -71q0 -17 4 -17z" />
    <glyph glyph-name="h" unicode="h" horiz-adv-x="597" 
d="M-45 -13q-5 0 -10 3t-9 8q-2 8 -2 11v5q96 289 223 450q162 208 252 208q32 0 32 -23q-4 -20 -20 -20q-6 0 -9 2q-75 -10 -206 -172q-105 -129 -191 -343q121 144 210 144q54 -2 54 -49q0 -25 -26 -76q-26 -52 -26 -70q0 -15 31 -15q51 0 150 48q97 47 184 105q4 3 11 3
q21 0 21 -21v-3q-1 -3 -1 -5q-1 -5 -100 -66q-173 -103 -265 -103q-73 0 -73 59q0 28 41 108q12 24 12 35q0 8 -13 8q-52 0 -126 -74q-76 -74 -127 -148q-8 -9 -17 -9z" />
    <glyph glyph-name="i" unicode="i" horiz-adv-x="457" 
d="M50 7q-89 0 -89 73q0 43 31 93q51 86 77 86q5 0 12 -6q6 -6 6 -14q0 -7 -6 -15q-24 -24 -52 -69q-26 -44 -26 -75q0 -33 51 -33q29 0 92 18q58 16 154 58q92 41 157 77q4 3 11 3q19 0 19 -23q0 -19 -169 -95q-170 -75 -268 -78zM125 286q-13 0 -20 9q-9 9 -9 20
q0 12 9 21q7 8 20 8t21 -8q8 -10 8 -21q0 -10 -8 -20q-9 -9 -21 -9z" />
    <glyph glyph-name="j" unicode="j" horiz-adv-x="361" 
d="M-505 -545q-24 0 -37 4q-92 27 -99 142q0 159 206 278q140 70 345 112q5 3 15 5q51 116 78 195t27 85q6 14 20 14q1 0 9 -2q6 -1 9 -8q4 -5 4 -10q0 -30 -95 -261q139 32 237 74q106 43 153 114q7 9 18 9q6 0 13 -4q8 -4 8 -15q0 -6 -3 -12q-58 -86 -178 -133
q-119 -46 -269 -82q-66 -154 -170 -301q-156 -204 -291 -204zM-510 -503q16 0 43 4q29 5 87 45q57 38 133 138q89 126 151 263q-191 -40 -319 -104q-184 -108 -184 -242q0 -83 69 -102q8 -2 20 -2zM71 329q-13 0 -21 8q-8 10 -8 21q0 10 8 20q9 9 21 9q13 0 20 -9
q9 -9 9 -20q0 -12 -9 -21q-7 -8 -20 -8z" />
    <glyph glyph-name="k" unicode="k" horiz-adv-x="515" 
d="M-52 -10q-6 0 -12 3q-4 3 -8 9q-2 8 -2 9l1 8q269 663 472 663q29 0 29 -22t-20 -22l-17 2q-45 0 -138 -98q-93 -99 -231 -404q7 7 9 10q3 4 6 6q61 61 84 80q49 40 83 40q18 0 34 -14q23 -21 23 -46q0 -52 -76 -83q-45 -19 -95 -19h-7q27 -61 101 -61q38 0 97 21
q55 20 125 61q59 36 105 68q13 8 18 8q20 0 20 -21q0 -12 -15 -21q-74 -56 -191 -115q-81 -42 -154 -42q-106 0 -145 88q-49 -57 -81 -100q-6 -8 -15 -8zM94 154q41 0 76 16q49 21 49 46q0 5 -8 13q-4 2 -10 2q-41 -8 -107 -77z" />
    <glyph glyph-name="l" unicode="l" horiz-adv-x="476" 
d="M104 -14q-83 0 -110 67q-9 20 -9 49q0 103 105 265q72 111 158 201q103 106 150 106q7 0 14 -4q16 -6 16 -19q0 -23 -22 -23q-6 0 -11 3q-30 -6 -108 -84q-75 -75 -154 -188q-76 -110 -100 -212q-6 -21 -6 -42q0 -15 2 -29q2 -20 25 -37q18 -12 48 -12q39 0 117 25
q80 24 255 149q8 5 16 5q17 -5 17 -22q0 -11 -9 -17q-247 -181 -394 -181z" />
    <glyph glyph-name="m" unicode="m" horiz-adv-x="750" 
d="M-43 17q-20 0 -20 20q0 70 82 174q30 38 36 44q7 7 19 7q6 0 12 -6t6 -15q0 -6 -6 -14q-54 -67 -76 -102q127 122 194 122q39 -7 39 -48q0 -15 -6 -31q37 32 81 55q37 20 65 20q17 0 31 -11q12 -12 12 -32q0 -25 -25 -71q-20 -42 -20 -54q0 -13 27 -13t93 20
q62 19 143 57q79 37 105 58q4 4 11 4q23 0 23 -20t-112 -75q-170 -85 -260 -85q-72 0 -72 51q0 15 8 37q9 22 30 68q7 15 7 24q-36 0 -95 -46q-62 -48 -109 -98q-8 -5 -15 -5q-21 0 -22 22q0 6 4 11q55 77 55 113q0 4 -2 8q-33 0 -97 -55q-66 -55 -130 -127q-7 -7 -16 -7z
" />
    <glyph glyph-name="n" unicode="n" horiz-adv-x="602" 
d="M-42 7q-19 0 -22 20q0 37 26 89q46 90 92 146q8 8 18 8q8 0 13 -5q7 -7 7 -16q0 -5 -5 -12q-32 -44 -67 -103q40 45 90 79q41 29 76 29q56 -3 56 -53q0 -17 -14 -56q-14 -34 -14 -53q0 -21 34 -21q24 0 84 19q51 18 132 56q76 37 137 70q6 3 12 3q19 0 19 -19
q0 -2 -2 -10q-2 -9 -119 -68q-179 -92 -264 -92q-17 0 -35 5q-40 18 -40 52t16 72q12 29 12 46q0 8 -11 8q-38 0 -102 -59q-65 -62 -113 -126q-8 -9 -16 -9z" />
    <glyph glyph-name="o" unicode="o" horiz-adv-x="469" 
d="M28 13q-8 0 -14 3q-44 11 -44 64q0 42 24 94q25 52 63 76q15 9 31 9q17 0 32 -12q6 -6 7 -13q30 -3 30 -42l-1 -17q35 -22 118 -25q75 0 195 54q6 3 10 3q21 0 21 -20q0 -14 -12 -20q-141 -58 -238 -58q-64 0 -105 25q-14 -35 -32 -61q-42 -60 -85 -60zM29 55q17 0 36 24
q32 37 44 79q-24 21 -24 42q0 9 5 16l-3 1q-5 0 -10 -4q-28 -18 -48 -62q-17 -40 -17 -70q0 -26 17 -26z" />
    <glyph glyph-name="p" unicode="p" horiz-adv-x="542" 
d="M-188 -370q-16 0 -25 9q-10 10 -13 21q-4 11 -4 29q0 60 56 187q58 128 166 250q11 82 11 122q0 34 -7 45q-9 7 -9 17q0 21 21 21q36 0 36 -90q0 -31 -4 -66q51 48 109 74q48 20 78 20q54 0 54 -49q0 -42 -47 -91q-43 -46 -98 -67l14 -1q113 0 394 139q8 2 10 2
q21 0 21 -21q0 -11 -11 -17q-220 -113 -340 -134q-64 -11 -104 -11q-60 0 -101 27q-24 -128 -72 -255q-48 -128 -115 -158q-10 -3 -20 -3zM-186 -328q48 0 125 224q25 84 37 147q-58 -81 -103 -168q-63 -127 -63 -190q0 -9 4 -13zM75 91q28 0 64 18q37 16 64 48q36 42 36 64
l-1 3l-14 3q-11 0 -33 -8q-81 -26 -160 -111l-2 -9q26 -8 46 -8z" />
    <glyph glyph-name="q" unicode="q" horiz-adv-x="554" 
d="M-97 -479q-30 0 -47 20q-9 11 -9 31q0 86 151 333q-13 7 -26 13q-14 6 -14 20q0 18 21 22q10 0 60 8l67 105q-86 -66 -136 -66q-48 0 -48 53q5 46 52 99q46 53 122 85q45 19 81 19q29 0 51 -13q1 2 6 8.5t7 9.5q4 7 16 7q21 0 21 -21q0 -11 -28 -46q-52 -72 -155 -230
q274 57 457 223q6 6 14 6q21 0 21 -19q0 -11 -6 -17q-223 -197 -518 -242q0 -1 -3 -5q-4 -4 -4 -8q70 -66 70 -124q0 -82 -43 -146q-44 -65 -103 -100q-41 -25 -77 -25zM-30 49q19 0 67 27q93 58 166 141q-13 5 -26 5q-26 0 -65 -15q-56 -25 -96 -65q-52 -53 -52 -87
q2 -6 6 -6zM-96 -437q21 0 54 18q53 33 89 87q38 56 38 112q-1 58 -52 101q-87 -148 -113 -205q-32 -67 -32 -102l1 -8q6 -3 15 -3z" />
    <glyph glyph-name="r" unicode="r" horiz-adv-x="520" 
d="M106 -29q-25 0 -41 10q-27 21 -27 55q0 51 56 122l-22 -1q-85 0 -85 66q0 45 44 89q37 37 67 37q10 0 22 -5q21 -12 23 -35q0 -45 -78 -111h6q27 0 75 12h5q11 0 18 -10q3 -5 3 -10q0 -9 -6 -15q-28 -27 -57 -69q-29 -41 -29 -72q2 -23 29 -23q45 0 157 53
q111 51 255 140q6 3 12 3q20 0 20 -21l-1 -7q-5 -11 -134 -84q-212 -121 -312 -124zM29 223q72 59 72 82l-1 3q-14 0 -39 -25q-29 -32 -32 -60z" />
    <glyph glyph-name="s" unicode="s" horiz-adv-x="446" 
d="M0 -69q-56 0 -56 37q0 51 113 102l-13 10q-51 38 -51 75q0 46 61 91q56 43 95 43q7 0 19 -4q8 -3 15 -11q7 -9 7 -22q0 -10 -7 -29q-6 -15 -20 -15q-21 0 -21 21q0 4 3 10q2 6 2 8q-36 -3 -83 -47q-30 -26 -30 -44q0 -17 35 -43l29 -24q171 68 356 115q10 0 17 -5
q8 -5 8 -17q0 -15 -16 -18q-240 -66 -342 -111q3 -9 3 -19q-6 -56 -53 -82q-39 -21 -71 -21zM0 -28q29 0 56 18q26 19 26 46q-89 -42 -95 -62q4 -2 13 -2z" />
    <glyph glyph-name="t" unicode="t" horiz-adv-x="487" 
d="M113 -14q-87 0 -117 71q-8 22 -8 49q0 30 7 62q36 137 148 275q-160 -9 -203 -32q-3 -17 -21 -17q-21 0 -21 26q0 14 24 29q57 25 257 38q62 71 114 115q68 59 106 59q5 0 12 -3q7 -1 13 -9q5 -5 5 -14q0 -20 -22 -20q-6 0 -11 5q-18 0 -61 -36t-97 -94l115 3
q198 0 229 -32q10 -10 11 -20q0 -23 -27 -39q-6 -2 -9 -2q-11 0 -20 10q-1 3 -1 10q0 10 5 17q-45 14 -201 14q-74 0 -139 -4q-123 -141 -164 -288q-6 -24 -6 -48q0 -16 1 -31q1 -20 29 -40q21 -13 51 -13q34 0 118 25q80 25 258 152q6 3 19 3q14 -3 14 -19q0 -12 -8 -18
q-257 -184 -400 -184z" />
    <glyph glyph-name="u" unicode="u" horiz-adv-x="625" 
d="M11 9l-8 1q-45 6 -45 56q0 66 84 186q6 8 18 9q6 0 13 -6q8 -5 8 -15q0 -5 -5 -13q-37 -53 -59 -101q-18 -39 -18 -61q0 -11 10 -15q40 0 116 76q71 73 134 159q6 9 17 9q6 0 14 -6q7 -4 7 -17q0 -3 -2 -9q-24 -41 -42 -98q-12 -37 -12 -65q0 -14 3 -26q8 -17 35 -17
q52 0 155 47q102 46 191 101q6 3 12 3q20 0 20 -22q0 -8 -10 -17q-125 -77 -256 -128q-66 -26 -112 -26q-81 0 -81 87q0 19 7 50q-118 -138 -194 -142z" />
    <glyph glyph-name="v" unicode="v" horiz-adv-x="539" 
d="M12 14q-39 0 -39 52q0 18 7 49q15 72 45 132q6 12 19 12q21 -5 21 -19q0 -7 -2 -10q-49 -116 -49 -165l1 -10q21 1 82 45q60 44 102 98q3 2 5 5q-4 12 -4 28q0 46 33 52q33 0 33 -39q0 -20 -15 -46q0 -1 2 -1q18 -34 100 -34q11 0 47 3q35 1 142 38l5 1q23 0 23 -21
q0 -15 -14 -20q-129 -43 -205 -43q-17 0 -56 4q-43 4 -70 37q-28 -39 -113 -103q-60 -45 -100 -45z" />
    <glyph glyph-name="w" unicode="w" horiz-adv-x="708" 
d="M224 -3q-31 0 -51 14q-33 26 -33 73l1 15q-71 -90 -119 -90q-18 0 -29 10q-27 21 -27 54t13 66q13 32 29 60q16 27 21 32q6 8 10 8q3 1 6 1q22 0 22 -21q0 -4 -4 -12q-55 -77 -55 -127q0 -16 9 -27q0 -2 5 -2q25 0 79 67q63 77 83 118q5 4 13 4q7 0 14 -5q8 -5 8 -15
q0 -4 -2 -10q-35 -70 -35 -120t40 -51q46 0 94 69q27 38 45 80q-23 31 -23 60q5 55 50 55q13 0 24 -13q10 -13 10 -34q0 -22 -12 -56q21 -21 95 -33q15 -3 33 -3q68 0 184 36q9 0 16 -4q8 -4 8 -18q0 -13 -14 -19q-116 -36 -191 -36q-96 0 -147 36q-8 -14 -10 -23
q-76 -139 -160 -139z" />
    <glyph glyph-name="x" unicode="x" horiz-adv-x="561" 
d="M-34 -94q-24 0 -24 35q0 55 83 174q-18 38 -26 67q-9 42 -10 56q-3 22 -3 25q0 22 21 22q18 0 21 -21q0 -49 26 -112q130 163 224 163q22 0 22 -22q-3 -20 -24 -20q-35 0 -88 -43q-58 -48 -111 -118q43 -65 135 -65q135 0 354 156q6 3 12 3q21 0 21 -21q0 -9 -9 -17
q-229 -164 -378 -164q-104 0 -161 74q-69 -108 -69 -135q0 -3 3 -8q2 -4 2 -10q0 -1 -2 -7q-2 -5 -7 -8q-8 -4 -12 -4z" />
    <glyph glyph-name="y" unicode="y" horiz-adv-x="561" 
d="M-291 -522q-24 0 -50 8q-92 38 -92 146q0 76 73 161q72 83 248 141q163 48 248 70q25 52 59 129q-41 -50 -90 -83q-34 -23 -63 -23q-14 0 -25 4q-44 21 -44 71q0 55 53 131q38 54 67 54q22 0 22 -20q0 -8 -6 -14t-15 -9q-10 -3 -27 -26q-17 -21 -34 -54q-16 -29 -19 -59
q0 -17 6 -25t12 -9q6 -3 11 -3q22 0 60 32q82 67 157 193q6 11 18 11q5 0 11 -3q6 -4 8 -9q2 -8 2 -9q0 -25 -108 -263q274 67 373 178q6 9 17 9q5 0 13 -6q7 -6 7 -15q0 -7 -4 -12q-114 -133 -430 -204q-74 -155 -179 -302q-142 -185 -279 -190zM-292 -480q36 0 97 29
q61 30 150 144q85 118 157 261l-9 -3q-68 -18 -204 -58q-157 -51 -223 -125q-67 -74 -67 -137q0 -80 64 -104q15 -7 35 -7z" />
    <glyph glyph-name="z" unicode="z" horiz-adv-x="576" 
d="M-207 -519h-19q-114 10 -140 103q-2 7 -2 23q0 23 10 60q9 38 71 105q63 66 203 142q106 54 224 90q-14 38 -61 38q-22 0 -34 -3q-3 0 -6.5 -0.5t-5.5 -1t-3 -0.5q-3 0 -11 2q-5 3 -8 9t-3 10q0 10 9 17q179 122 210 172q-12 2 -20 2q-54 0 -120 -28q-49 -20 -49 -31
q0 -21 -21 -21q-20 0 -20 22q0 28 40 52q44 26 106 40q35 8 60 8q63 0 68 -35q-1 -54 -171 -174q34 -5 59 -30q14 -14 22 -35q23 9 45 14q238 62 352 164q5 8 14 8q8 0 16 -5q6 -8 6 -18q0 -5 -5 -12q-125 -115 -368 -175l-52 -16l1 -15q0 -56 -29 -140q-68 -179 -169 -259
q-103 -82 -199 -82zM-211 -478q84 0 177 72t156 240q26 81 26 120v8q-114 -35 -212 -84q-263 -144 -263 -268q9 -85 116 -88z" />
    <glyph glyph-name="braceleft" unicode="{" horiz-adv-x="554" 
 />
    <glyph glyph-name="bar" unicode="|" horiz-adv-x="613" 
 />
    <glyph glyph-name="braceright" unicode="}" horiz-adv-x="896" 
 />
    <glyph glyph-name="asciitilde" unicode="~" horiz-adv-x="636" 
 />
    <glyph glyph-name="exclamdown" unicode="&#xa1;" horiz-adv-x="642" 
 />
    <glyph glyph-name="cent" unicode="&#xa2;" horiz-adv-x="609" 
 />
    <glyph glyph-name="sterling" unicode="&#xa3;" horiz-adv-x="839" 
 />
    <glyph glyph-name="currency" unicode="&#xa4;" horiz-adv-x="884" 
 />
    <glyph glyph-name="yen" unicode="&#xa5;" horiz-adv-x="805" 
 />
    <glyph glyph-name="brokenbar" unicode="&#xa6;" horiz-adv-x="544" 
 />
    <glyph glyph-name="section" unicode="&#xa7;" horiz-adv-x="798" 
 />
    <glyph glyph-name="dieresis" unicode="&#xa8;" horiz-adv-x="451" 
 />
    <glyph glyph-name="copyright" unicode="&#xa9;" horiz-adv-x="855" 
 />
    <glyph glyph-name="ordfeminine" unicode="&#xaa;" horiz-adv-x="541" 
 />
    <glyph glyph-name="guillemotleft" unicode="&#xab;" horiz-adv-x="626" 
 />
    <glyph glyph-name="logicalnot" unicode="&#xac;" horiz-adv-x="695" 
 />
    <glyph glyph-name="registered" unicode="&#xae;" horiz-adv-x="696" 
 />
    <glyph glyph-name="macron" unicode="&#xaf;" horiz-adv-x="704" 
 />
    <glyph glyph-name="degree" unicode="&#xb0;" horiz-adv-x="399" 
 />
    <glyph glyph-name="plusminus" unicode="&#xb1;" horiz-adv-x="854" 
 />
    <glyph glyph-name="twosuperior" unicode="&#xb2;" horiz-adv-x="391" 
 />
    <glyph glyph-name="threesuperior" unicode="&#xb3;" horiz-adv-x="398" 
 />
    <glyph glyph-name="acute" unicode="&#xb4;" horiz-adv-x="250" 
 />
    <glyph glyph-name="mu" unicode="&#xb5;" horiz-adv-x="723" 
 />
    <glyph glyph-name="paragraph" unicode="&#xb6;" horiz-adv-x="788" 
 />
    <glyph glyph-name="periodcentered" unicode="&#xb7;" horiz-adv-x="216" 
 />
    <glyph glyph-name="periodcentered" unicode="&#x2219;" horiz-adv-x="216" 
 />
    <glyph glyph-name="cedilla" unicode="&#xb8;" horiz-adv-x="306" 
 />
    <glyph glyph-name="onesuperior" unicode="&#xb9;" horiz-adv-x="345" 
 />
    <glyph glyph-name="ordmasculine" unicode="&#xba;" horiz-adv-x="367" 
 />
    <glyph glyph-name="guillemotright" unicode="&#xbb;" horiz-adv-x="626" 
 />
    <glyph glyph-name="onequarter" unicode="&#xbc;" horiz-adv-x="800" 
 />
    <glyph glyph-name="onehalf" unicode="&#xbd;" horiz-adv-x="800" 
 />
    <glyph glyph-name="threequarters" unicode="&#xbe;" horiz-adv-x="799" 
 />
    <glyph glyph-name="questiondown" unicode="&#xbf;" horiz-adv-x="769" 
 />
    <glyph glyph-name="Agrave" unicode="&#xc0;" horiz-adv-x="1618" 
 />
    <glyph glyph-name="Aacute" unicode="&#xc1;" horiz-adv-x="1787" 
 />
    <glyph glyph-name="Acircumflex" unicode="&#xc2;" horiz-adv-x="1699" 
 />
    <glyph glyph-name="Atilde" unicode="&#xc3;" horiz-adv-x="1739" 
 />
    <glyph glyph-name="Adieresis" unicode="&#xc4;" horiz-adv-x="1699" 
 />
    <glyph glyph-name="Aring" unicode="&#xc5;" horiz-adv-x="1723" 
 />
    <glyph glyph-name="AE" unicode="&#xc6;" horiz-adv-x="2503" 
 />
    <glyph glyph-name="Ccedilla" unicode="&#xc7;" horiz-adv-x="1447" 
 />
    <glyph glyph-name="Egrave" unicode="&#xc8;" horiz-adv-x="1239" 
 />
    <glyph glyph-name="Eacute" unicode="&#xc9;" horiz-adv-x="1239" 
 />
    <glyph glyph-name="Ecircumflex" unicode="&#xca;" horiz-adv-x="1239" 
 />
    <glyph glyph-name="Edieresis" unicode="&#xcb;" horiz-adv-x="1239" 
 />
    <glyph glyph-name="Igrave" unicode="&#xcc;" horiz-adv-x="660" 
 />
    <glyph glyph-name="Iacute" unicode="&#xcd;" horiz-adv-x="769" 
 />
    <glyph glyph-name="Icircumflex" unicode="&#xce;" horiz-adv-x="680" 
 />
    <glyph glyph-name="Idieresis" unicode="&#xcf;" horiz-adv-x="690" 
 />
    <glyph glyph-name="Eth" unicode="&#xd0;" horiz-adv-x="1998" 
 />
    <glyph glyph-name="Ntilde" unicode="&#xd1;" horiz-adv-x="2359" 
 />
    <glyph glyph-name="Ograve" unicode="&#xd2;" horiz-adv-x="1201" 
 />
    <glyph glyph-name="Oacute" unicode="&#xd3;" horiz-adv-x="1202" 
 />
    <glyph glyph-name="Ocircumflex" unicode="&#xd4;" horiz-adv-x="1202" 
 />
    <glyph glyph-name="Otilde" unicode="&#xd5;" horiz-adv-x="1201" 
 />
    <glyph glyph-name="Odieresis" unicode="&#xd6;" horiz-adv-x="1201" 
 />
    <glyph glyph-name="multiply" unicode="&#xd7;" horiz-adv-x="704" 
 />
    <glyph glyph-name="Oslash" unicode="&#xd8;" horiz-adv-x="1325" 
 />
    <glyph glyph-name="Ugrave" unicode="&#xd9;" 
 />
    <glyph glyph-name="Uacute" unicode="&#xda;" 
 />
    <glyph glyph-name="Ucircumflex" unicode="&#xdb;" 
 />
    <glyph glyph-name="Udieresis" unicode="&#xdc;" 
 />
    <glyph glyph-name="Yacute" unicode="&#xdd;" horiz-adv-x="1151" 
 />
    <glyph glyph-name="Thorn" unicode="&#xde;" horiz-adv-x="1352" 
 />
    <glyph glyph-name="germandbls" unicode="&#xdf;" horiz-adv-x="1106" 
 />
    <glyph glyph-name="agrave" unicode="&#xe0;" horiz-adv-x="465" 
 />
    <glyph glyph-name="aacute" unicode="&#xe1;" horiz-adv-x="464" 
 />
    <glyph glyph-name="acircumflex" unicode="&#xe2;" horiz-adv-x="465" 
 />
    <glyph glyph-name="atilde" unicode="&#xe3;" horiz-adv-x="465" 
 />
    <glyph glyph-name="adieresis" unicode="&#xe4;" horiz-adv-x="465" 
 />
    <glyph glyph-name="aring" unicode="&#xe5;" horiz-adv-x="465" 
 />
    <glyph glyph-name="ae" unicode="&#xe6;" horiz-adv-x="885" 
 />
    <glyph glyph-name="ccedilla" unicode="&#xe7;" horiz-adv-x="529" 
 />
    <glyph glyph-name="egrave" unicode="&#xe8;" horiz-adv-x="453" 
 />
    <glyph glyph-name="eacute" unicode="&#xe9;" horiz-adv-x="454" 
 />
    <glyph glyph-name="ecircumflex" unicode="&#xea;" horiz-adv-x="453" 
 />
    <glyph glyph-name="edieresis" unicode="&#xeb;" horiz-adv-x="454" 
 />
    <glyph glyph-name="igrave" unicode="&#xec;" horiz-adv-x="457" 
 />
    <glyph glyph-name="iacute" unicode="&#xed;" horiz-adv-x="457" 
 />
    <glyph glyph-name="icircumflex" unicode="&#xee;" horiz-adv-x="457" 
 />
    <glyph glyph-name="idieresis" unicode="&#xef;" horiz-adv-x="456" 
 />
    <glyph glyph-name="eth" unicode="&#xf0;" horiz-adv-x="304" 
 />
    <glyph glyph-name="ntilde" unicode="&#xf1;" horiz-adv-x="602" 
 />
    <glyph glyph-name="ograve" unicode="&#xf2;" horiz-adv-x="468" 
 />
    <glyph glyph-name="oacute" unicode="&#xf3;" horiz-adv-x="468" 
 />
    <glyph glyph-name="ocircumflex" unicode="&#xf4;" horiz-adv-x="468" 
 />
    <glyph glyph-name="otilde" unicode="&#xf5;" horiz-adv-x="469" 
 />
    <glyph glyph-name="odieresis" unicode="&#xf6;" horiz-adv-x="468" 
 />
    <glyph glyph-name="divide" unicode="&#xf7;" horiz-adv-x="646" 
 />
    <glyph glyph-name="oslash" unicode="&#xf8;" horiz-adv-x="504" 
 />
    <glyph glyph-name="ugrave" unicode="&#xf9;" horiz-adv-x="624" 
 />
    <glyph glyph-name="uacute" unicode="&#xfa;" horiz-adv-x="625" 
 />
    <glyph glyph-name="ucircumflex" unicode="&#xfb;" horiz-adv-x="624" 
 />
    <glyph glyph-name="udieresis" unicode="&#xfc;" horiz-adv-x="626" 
 />
    <glyph glyph-name="yacute" unicode="&#xfd;" horiz-adv-x="561" 
 />
    <glyph glyph-name="thorn" unicode="&#xfe;" horiz-adv-x="417" 
 />
    <glyph glyph-name="ydieresis" unicode="&#xff;" horiz-adv-x="561" 
 />
    <glyph glyph-name="dotlessi" unicode="&#x131;" horiz-adv-x="482" 
 />
    <glyph glyph-name="OE" unicode="&#x152;" horiz-adv-x="2357" 
 />
    <glyph glyph-name="oe" unicode="&#x153;" horiz-adv-x="960" 
 />
    <glyph glyph-name="Scaron" unicode="&#x160;" horiz-adv-x="1219" 
 />
    <glyph glyph-name="scaron" unicode="&#x161;" horiz-adv-x="471" 
 />
    <glyph glyph-name="Ydieresis" unicode="&#x178;" horiz-adv-x="1223" 
 />
    <glyph glyph-name="zcaron" unicode="&#x17e;" horiz-adv-x="601" 
 />
    <glyph glyph-name="circumflex" unicode="&#x2c6;" horiz-adv-x="314" 
 />
    <glyph glyph-name="caron" unicode="&#x2c7;" horiz-adv-x="316" 
 />
    <glyph glyph-name="uni02C9" unicode="&#x2c9;" horiz-adv-x="377" 
 />
    <glyph glyph-name="breve" unicode="&#x2d8;" horiz-adv-x="380" 
 />
    <glyph glyph-name="dotaccent" unicode="&#x2d9;" horiz-adv-x="216" 
 />
    <glyph glyph-name="ring" unicode="&#x2da;" horiz-adv-x="338" 
 />
    <glyph glyph-name="ogonek" unicode="&#x2db;" horiz-adv-x="301" 
 />
    <glyph glyph-name="tilde" unicode="&#x2dc;" horiz-adv-x="421" 
 />
    <glyph glyph-name="hungarumlaut" unicode="&#x2dd;" horiz-adv-x="310" 
 />
    <glyph glyph-name="endash" unicode="&#x2013;" horiz-adv-x="766" 
 />
    <glyph glyph-name="emdash" unicode="&#x2014;" horiz-adv-x="1253" 
 />
    <glyph glyph-name="quoteleft" unicode="&#x2018;" horiz-adv-x="244" 
 />
    <glyph glyph-name="quoteright" unicode="&#x2019;" horiz-adv-x="275" 
 />
    <glyph glyph-name="quotesinglbase" unicode="&#x201a;" horiz-adv-x="271" 
 />
    <glyph glyph-name="quotedblleft" unicode="&#x201c;" horiz-adv-x="346" 
 />
    <glyph glyph-name="quotedblright" unicode="&#x201d;" horiz-adv-x="383" 
 />
    <glyph glyph-name="quotedblbase" unicode="&#x201e;" horiz-adv-x="377" 
 />
    <glyph glyph-name="dagger" unicode="&#x2020;" horiz-adv-x="686" 
 />
    <glyph glyph-name="daggerdbl" unicode="&#x2021;" horiz-adv-x="842" 
 />
    <glyph glyph-name="bullet" unicode="&#x2022;" horiz-adv-x="249" 
 />
    <glyph glyph-name="ellipsis" unicode="&#x2026;" horiz-adv-x="514" 
 />
    <glyph glyph-name="guilsinglleft" unicode="&#x2039;" horiz-adv-x="357" 
 />
    <glyph glyph-name="guilsinglright" unicode="&#x203a;" horiz-adv-x="358" 
 />
    <glyph glyph-name="fraction" unicode="&#x2044;" horiz-adv-x="800" 
 />
    <glyph glyph-name="fraction" unicode="&#x2215;" horiz-adv-x="800" 
 />
    <glyph glyph-name="franc" unicode="&#x20a3;" horiz-adv-x="1172" 
 />
    <glyph glyph-name="lira" unicode="&#x20a4;" horiz-adv-x="838" 
 />
    <glyph glyph-name="peseta" unicode="&#x20a7;" horiz-adv-x="884" 
 />
    <glyph glyph-name="Euro" unicode="&#x20ac;" horiz-adv-x="1250" 
 />
    <glyph glyph-name="numero" unicode="&#x2116;" horiz-adv-x="1122" 
 />
    <glyph glyph-name="trademark" unicode="&#x2122;" horiz-adv-x="726" 
 />
    <glyph glyph-name="partialdiff" unicode="&#x2202;" horiz-adv-x="593" 
 />
    <glyph glyph-name="Delta" unicode="&#x2206;" horiz-adv-x="692" 
 />
    <glyph glyph-name="product" unicode="&#x220f;" horiz-adv-x="967" 
 />
    <glyph glyph-name="summation" unicode="&#x2211;" horiz-adv-x="796" 
 />
    <glyph glyph-name="minus" unicode="&#x2212;" horiz-adv-x="766" 
 />
    <glyph glyph-name="radical" unicode="&#x221a;" horiz-adv-x="814" 
 />
    <glyph glyph-name="infinity" unicode="&#x221e;" horiz-adv-x="660" 
 />
    <glyph glyph-name="integral" unicode="&#x222b;" horiz-adv-x="738" 
 />
    <glyph glyph-name="approxequal" unicode="&#x2248;" horiz-adv-x="561" 
 />
    <glyph glyph-name="lessequal" unicode="&#x2264;" horiz-adv-x="569" 
 />
    <glyph glyph-name="greaterequal" unicode="&#x2265;" horiz-adv-x="569" 
 />
    <glyph glyph-name="uniF001" unicode="&#xf001;" horiz-adv-x="1073" 
 />
    <glyph glyph-name="uniF001" unicode="&#xfb01;" horiz-adv-x="1073" 
 />
    <glyph glyph-name="uniF002" unicode="&#xf002;" horiz-adv-x="1081" 
 />
    <glyph glyph-name="uniF002" unicode="&#xfb02;" horiz-adv-x="1081" 
 />
    </font>
</defs>
</svg>
